<svg width="12" height="18" viewBox="0 0 12 18" fill="none" xmlns="http://www.w3.org/2000/svg">
<path fill-rule="evenodd" clip-rule="evenodd" d="M10.8724 17.4729C11.2098 17.1354 11.3994 16.6776 11.3994 16.2003C11.3994 15.723 11.2098 15.2653 10.8724 14.9277L4.945 9.00034L10.8724 3.07294C11.2003 2.73346 11.3817 2.27877 11.3776 1.80682C11.3735 1.33487 11.1842 0.883404 10.8505 0.549669C10.5167 0.215935 10.0653 0.0266301 9.59332 0.022529C9.12137 0.0184278 8.66668 0.199858 8.3272 0.527743L1.1272 7.72774C0.789752 8.06529 0.600184 8.52305 0.600184 9.00034C0.600184 9.47764 0.789752 9.93539 1.1272 10.2729L8.3272 17.4729C8.66475 17.8104 9.1225 18 9.5998 18C10.0771 18 10.5348 17.8104 10.8724 17.4729Z" fill="#FBFCFE"/>
</svg>
