<svg width="22" height="22" viewBox="0 0 22 22" xmlns="http://www.w3.org/2000/svg">
<path fill-rule="evenodd" clip-rule="evenodd" d="M11.0004 8.80015C9.79545 8.80015 8.81866 9.78503 8.81866 11.0002C8.81866 12.2154 9.79545 13.2003 11.0004 13.2003C12.2052 13.2003 13.1821 12.2154 13.1821 11.0002C13.1821 9.78507 12.2052 8.80015 11.0004 8.80015ZM21.2723 13.5933L19.5695 12.6018C19.6648 12.0811 19.7279 11.5495 19.7279 11.0002C19.7279 10.4516 19.6656 9.91922 19.5695 9.39853L21.2723 8.40703C21.9683 8.00223 22.2066 7.10535 21.8048 6.40352L20.3505 3.86321C19.9487 3.16141 19.0591 2.92161 18.3632 3.32641L16.6427 4.32815C15.839 3.63807 14.9253 3.07413 13.9096 2.71185V1.46668C13.9095 0.656359 13.2584 0 12.4553 0H9.54613C8.7431 0 8.09188 0.657078 8.09188 1.46668V2.71117C7.07548 3.07416 6.16174 3.63814 5.35724 4.32818L3.63681 3.32644C2.94087 2.92164 2.05132 3.16144 1.65015 3.86324L0.195265 6.40359C-0.206624 7.10467 0.0317414 8.0023 0.727678 8.4071L2.43053 9.3986C2.3352 9.91929 2.27211 10.4517 2.27211 11.0002C2.27211 11.5488 2.33444 12.0812 2.43053 12.6018L0.727678 13.5933C0.0317412 13.9982 -0.206588 14.8958 0.195265 15.5968L1.65023 18.1371C2.05211 18.8383 2.94166 19.0788 3.63688 18.674L5.35731 17.6722C6.16105 18.3623 7.0748 18.9262 8.09052 19.2885V20.5338C8.09052 21.3434 8.74174 22.0005 9.54472 22.0005H12.4539C13.2569 22.0005 13.9081 21.3434 13.9081 20.5338V19.2892C14.9239 18.927 15.8376 18.363 16.6413 17.6729L18.3617 18.6747C19.0577 19.0795 19.9472 18.8389 20.3491 18.1379L21.8033 15.5975C22.2066 14.895 21.9683 13.9981 21.2723 13.5933ZM11.0004 14.6669C8.99175 14.6669 7.3637 13.0249 7.3637 11.0002C7.3637 8.97471 8.99175 7.33347 11.0004 7.33347C13.009 7.33347 14.637 8.97543 14.637 11.0002C14.6363 13.0249 13.0083 14.6669 11.0004 14.6669Z"/>
</svg>
