<svg width="28" height="28" viewBox="0 0 28 28" xmlns="http://www.w3.org/2000/svg">
<path d="M8.23779 12.9062H10.4253V15.0938H8.23779V12.9062Z"/>
<path d="M12.9062 12.9062H15.0938V15.0938H12.9062V12.9062Z"/>
<path d="M17.5747 12.9062H19.7622V15.0938H17.5747V12.9062Z"/>
<path d="M18.6369 20.8357C17.2783 21.7586 15.6618 22.2591 14 22.2591C9.43552 22.2591 5.74091 18.5651 5.74091 14V13.1797H0V14C0 21.7372 6.26151 28 14 28C17.193 28 20.2671 26.918 22.7393 24.9381L24.4445 26.6433L25.9616 17.8008L17.1191 19.3179L18.6369 20.8357Z"/>
<path d="M14.0001 0C10.8145 0 7.74628 1.07773 5.27679 3.04947L3.58405 1.35672L2.06689 10.1992L10.9094 8.68207L9.37857 7.15125C10.7376 6.22583 12.3187 5.74091 14.0001 5.74091C18.5646 5.74091 22.2592 9.43509 22.2592 14V14.8203H28.0001V14C28.0001 6.26279 21.7386 0 14.0001 0Z"/>
</svg>
