<svg width="27" height="25" viewBox="0 0 27 25" fill="none" xmlns="http://www.w3.org/2000/svg">
<path d="M1.92286 13.9436C1.92286 13.6781 2.13808 13.4629 2.40357 13.4629H24.5164C24.7819 13.4629 24.9971 13.6781 24.9971 13.9436V14.4243H1.92286V13.9436ZM0.961429 15.8665C0.961429 15.601 1.17665 15.3857 1.44214 15.3857H25.4779C25.7433 15.3857 25.9586 15.601 25.9586 15.8665V22.1157H0.961429V15.8665ZM26.92 24.0386H0V23.5579C0 23.2924 0.215223 23.0772 0.480714 23.0772H26.4393C26.7048 23.0772 26.92 23.2924 26.92 23.5579V24.0386Z" fill="#FD346E"/>
<path d="M24.5154 16.3477H2.40259C2.1371 16.3477 1.92188 16.5629 1.92188 16.8284C1.92188 17.0939 2.1371 17.3091 2.40259 17.3091H24.5154C24.7809 17.3091 24.9962 17.0939 24.9962 16.8284C24.9962 16.5629 24.7809 16.3477 24.5154 16.3477Z" fill="#FD346E"/>
<path d="M13.4595 11.0596C13.9904 11.0596 14.4209 10.6291 14.4209 10.0981C14.4209 9.56717 13.9904 9.13672 13.4595 9.13672C12.9285 9.13672 12.498 9.56717 12.498 10.0981C12.498 10.6291 12.9285 11.0596 13.4595 11.0596Z" fill="#FD346E"/>
<path d="M17.7974 8.98813C17.4268 8.98837 17.089 8.77553 16.9293 8.44108C16.2915 7.1042 14.9421 6.2529 13.4609 6.2529C11.9797 6.2529 10.6303 7.1042 9.99255 8.44108C9.7637 8.92029 9.1897 9.12324 8.71049 8.89439C8.23128 8.66554 8.02832 8.09154 8.25718 7.61232C9.21441 5.60695 11.2388 4.33008 13.4609 4.33008C15.683 4.33008 17.7074 5.60695 18.6646 7.61232C18.8067 7.90985 18.7865 8.25945 18.6109 8.53856C18.4354 8.81767 18.1291 8.98735 17.7993 8.98813H17.7974Z" fill="#FD346E"/>
<path d="M21.2685 6.84371C20.8993 6.84311 20.563 6.63105 20.4032 6.2981C19.1243 3.62641 16.4252 1.92612 13.4632 1.92612C10.5011 1.92612 7.80208 3.62641 6.5231 6.2981C6.37786 6.6133 6.07403 6.82576 5.72814 6.854C5.38224 6.88223 5.04797 6.72187 4.85354 6.4344C4.6591 6.14694 4.63468 5.777 4.78964 5.46647C6.38702 2.12618 9.76059 0 13.4632 0C17.1658 0 20.5393 2.12618 22.1367 5.46647C22.2795 5.76412 22.2596 6.11422 22.0839 6.39376C21.9083 6.67329 21.6015 6.84317 21.2714 6.84371H21.2685Z" fill="#FD346E"/>
</svg>
