<svg width="23" height="27" viewBox="0 0 23 27" xmlns="http://www.w3.org/2000/svg">
<path d="M15.1264 4.49441V3.59553C15.0954 1.61179 13.4836 0 11.4999 0C9.51611 0 7.90432 1.61179 7.87333 3.62652V4.49441C4.71175 5.92022 2.66602 9.08181 2.66602 12.5534V15.498H20.3337V12.7083C20.3337 9.20579 18.288 6.01321 15.1264 4.49441Z"/>
<path d="M21.1702 17.0479H1.82877C0.650921 18.1947 0 19.7444 0 21.4182V22.1621C0 22.7201 0.464943 23.154 0.991875 23.154H7.12907C7.68699 25.5717 10.0737 27.0595 12.4914 26.5326C14.1651 26.1606 15.498 24.8278 15.8699 23.154H22.0071C22.565 23.154 22.999 22.6891 22.999 22.1621V21.4182C23.03 19.7444 22.3481 18.1947 21.1702 17.0479Z"/>
</svg>
