<svg width="26" height="22" viewBox="0 0 26 22" xmlns="http://www.w3.org/2000/svg">
    <path d="M25.1312 5.65334C24.9739 5.27591 24.6594 4.96141 24.282 4.80415L13.2741 0.11794C12.8653 -0.0393133 12.4249 -0.0393133 12.0161 0.11794L1.00821 4.83561C0.190479 5.18157 -0.186934 6.12509 0.159028 6.94283C0.316283 7.32023 0.630794 7.63475 1.00821 7.792L12.0161 12.4782C12.4249 12.6355 12.8653 12.6355 13.2741 12.4782L24.282 7.76055C25.0997 7.41459 25.4771 6.47106 25.1312 5.65334Z"/>
    <path d="M25.3206 15.1514C25.0375 14.3023 24.1254 13.8305 23.2763 14.1135C23.1819 14.145 23.0876 14.1764 22.9932 14.2393L12.6143 18.6425L2.23549 14.2393C1.41776 13.8934 0.474227 14.2709 0.128266 15.0885C-0.217696 15.9063 0.159717 16.8498 0.977445 17.1957L11.9853 21.882C12.3942 22.0392 12.8345 22.0392 13.2434 21.882L24.2512 17.1643C25.1319 16.9127 25.6036 16.0006 25.3206 15.1514Z"/>
    <path d="M25.1312 10.4025C24.7852 9.55328 23.8417 9.17586 23.024 9.52181L12.6451 13.9564L2.26625 9.52181C1.44852 9.17586 0.504989 9.55328 0.159028 10.371C-0.186934 11.1887 0.190479 12.1323 1.00821 12.4782L12.0161 17.1959C12.4249 17.3532 12.8653 17.3532 13.2741 17.1959L24.282 12.5097C25.0997 12.1637 25.4771 11.2202 25.1312 10.4025Z"/>
</svg>