<svg width="22" height="26" viewBox="0 0 22 26" xmlns="http://www.w3.org/2000/svg">
<path fill-rule="evenodd" clip-rule="evenodd" d="M18.8571 3.14287H16.5V1.57142H14.3833C13.7028 0.635662 12.4504 0 11 0C9.54956 0 8.29715 0.635662 7.61669 1.57142H5.49998V3.14283H3.14286C1.4072 3.14283 0 4.55004 0 6.28566V22C0 23.7356 1.4072 25.1428 3.14286 25.1428H18.8571C20.5928 25.1428 22 23.7356 22 22V6.2857C22 4.55007 20.5927 3.14287 18.8571 3.14287ZM7.0714 3.14287H8.81724C8.81724 2.27545 9.79465 1.57145 10.9999 1.57145C12.2052 1.57145 13.1826 2.27466 13.1826 3.14287H14.9286V6.2857H7.0714V3.14287ZM16.5 20.4285H5.49998C5.06628 20.4285 4.71428 20.0765 4.71428 19.6428C4.71428 19.2091 5.06628 18.8572 5.49998 18.8572H16.5C16.9337 18.8572 17.2857 19.2091 17.2857 19.6428C17.2857 20.0765 16.9337 20.4285 16.5 20.4285ZM16.5 16.5H5.49998C5.06628 16.5 4.71428 16.148 4.71428 15.7143C4.71428 15.2806 5.06628 14.9286 5.49998 14.9286H16.5C16.9337 14.9286 17.2857 15.2806 17.2857 15.7143C17.2857 16.148 16.9337 16.5 16.5 16.5ZM16.5 12.5714H5.49998C5.06628 12.5714 4.71428 12.2194 4.71428 11.7857C4.71428 11.352 5.06628 11 5.49998 11H16.5C16.9337 11 17.2857 11.352 17.2857 11.7857C17.2857 12.2194 16.9337 12.5714 16.5 12.5714Z"/>
</svg>
