<svg width="13" height="13" viewBox="0 0 13 13" fill="none" xmlns="http://www.w3.org/2000/svg">
<g clip-path="url(#clip0_29_1421)">
<path fill-rule="evenodd" clip-rule="evenodd" d="M6.0329 0C6.83942 0.0288057 7.67475 0.0288057 8.48127 0.0576096C9.20138 0.0864115 9.86388 0.201629 10.4976 0.576079C11.3041 1.06575 11.7938 1.78585 11.9666 2.70757C12.053 3.25485 12.0818 3.83093 12.1106 4.37821C12.1394 5.58797 12.1106 6.79774 12.1106 8.0075C12.1106 8.6412 12.0818 9.27488 11.8802 9.87976C11.4769 11.0607 10.6416 11.7808 9.43181 12.0113C8.88453 12.1265 8.30844 12.1265 7.76116 12.1553C6.55138 12.1841 5.37041 12.1553 4.16062 12.1553C3.52693 12.1553 2.89323 12.1265 2.28834 11.9249C1.10736 11.5216 0.387257 10.6863 0.156823 9.47651C0.0416064 8.92923 0.0416064 8.35315 0.0128025 7.80588C-0.0160032 6.59611 0.0128025 5.38634 0.0128025 4.17658C0.0128025 3.54289 0.0416064 2.90921 0.243235 2.30432C0.646498 1.12335 1.48182 0.403258 2.6916 0.172825C3.23889 0.0576124 3.81497 0.0576124 4.36225 0.0288057C4.90954 0 5.45681 0 6.0329 0V0ZM11.016 5.96243C11.016 5.96243 10.9872 5.96243 11.016 5.96243C10.9872 5.47276 10.9872 5.01189 10.9872 4.52223C10.9872 4.06137 10.9584 3.6005 10.9008 3.13964C10.7856 2.10269 10.1807 1.4114 9.17257 1.20977C8.65409 1.09455 8.078 1.09455 7.55953 1.09455C6.52258 1.06575 5.51442 1.06575 4.47747 1.09455C3.95899 1.09455 3.44052 1.12335 2.95084 1.20977C2.08671 1.35379 1.48182 1.84346 1.22258 2.70757C1.13617 2.99561 1.10737 3.28365 1.07856 3.5717C1.04976 4.66625 1.04976 5.7608 1.04976 6.85535C1.04976 7.54664 1.07856 8.26675 1.13617 8.95804C1.22258 9.99498 1.85628 10.7151 2.89323 10.8879C3.41171 10.9743 3.95899 11.0031 4.50627 11.0031C5.51442 11.0319 6.52258 11.0031 7.55953 11.0031C8.0204 11.0031 8.48127 10.9743 8.94214 10.9167C9.3742 10.8879 9.77746 10.7439 10.1231 10.4558C10.6992 9.99498 10.9008 9.39009 10.9296 8.6988C10.9872 7.83468 10.9872 6.91296 11.016 5.96243Z" fill="#F2F5FF"/>
<path fill-rule="evenodd" clip-rule="evenodd" d="M9.14361 6.07759C9.14361 7.80581 7.761 9.18839 6.03274 9.18839C4.30448 9.18839 2.92188 7.80581 2.92188 6.04879C2.92188 4.34937 4.33329 2.9668 6.06154 2.9668C7.761 2.9668 9.14361 4.34937 9.14361 6.07759ZM6.03274 8.09385C7.1273 8.09385 8.04905 7.17213 8.04905 6.07759C8.04905 4.98305 7.1273 4.06133 6.03274 4.06133C4.90938 4.06133 4.01644 4.98305 4.01644 6.07759C3.98764 7.17213 4.90938 8.09385 6.03274 8.09385Z" fill="#F2F5FF"/>
<path d="M9.97901 2.82314C9.97901 3.2264 9.66216 3.57205 9.25889 3.57205C8.85564 3.57205 8.50998 3.2264 8.53879 2.82314C8.53879 2.41988 8.85564 2.10303 9.25889 2.10303C9.66216 2.10303 9.97901 2.41987 9.97901 2.82314Z" fill="#F2F5FF"/>
</g>
<defs>
<clipPath id="clip0_29_1421">
<rect width="12.1234" height="12.1681" fill="white"/>
</clipPath>
</defs>
</svg>
