<svg width="12" height="11" viewBox="0 0 12 11" fill="none" xmlns="http://www.w3.org/2000/svg">
<path fill-rule="evenodd" clip-rule="evenodd" d="M11.3878 6.66069V10.8658H8.93218V6.93693C8.93218 5.95471 8.59454 5.27943 7.70439 5.27943C7.0291 5.27943 6.63007 5.73985 6.4459 6.16957C6.38451 6.32305 6.35382 6.53791 6.35382 6.75276V10.8658H3.89824C3.89824 10.8658 3.92893 4.20513 3.89824 3.52986H6.35382V4.57347C6.35382 4.57347 6.35382 4.60415 6.32312 4.60415H6.35382V4.57347C6.69146 4.08236 7.24397 3.34569 8.56384 3.34569C10.16 3.34569 11.3878 4.41999 11.3878 6.66069V6.66069ZM1.38127 0C0.552504 0 0 0.552498 0 1.25847C0 1.96444 0.52181 2.51694 1.35057 2.51694H1.38127C2.24072 2.51694 2.76253 1.96444 2.76253 1.25847C2.73184 0.552498 2.21002 0 1.38127 0V0ZM0.122774 10.8658H2.54766V3.52986H0.122774V10.8658Z" fill="#F2F5FF"/>
</svg>
