<svg width="13" height="11" viewBox="0 0 13 11" fill="none" xmlns="http://www.w3.org/2000/svg">
<path fill-rule="evenodd" clip-rule="evenodd" d="M12.8239 1.23711C12.3411 1.44833 11.8584 1.5992 11.3152 1.65954C11.8584 1.32764 12.2808 0.814686 12.4618 0.211212C11.9489 0.512949 11.3756 0.724163 10.8023 0.844856C10.3195 0.331907 9.62549 0 8.87114 0C7.42279 0 6.24601 1.17677 6.24601 2.6251C6.24601 2.83632 6.27618 3.04752 6.30636 3.22857C4.10366 3.10787 2.17253 2.08197 0.875044 0.482777C0.633653 0.875032 0.512958 1.32764 0.512958 1.81041C0.512958 2.71562 0.965568 3.5303 1.68974 4.01308C1.26731 4.01308 0.844871 3.89239 0.482783 3.68117V3.71134C0.482783 4.97864 1.388 6.06488 2.59496 6.30626C2.38374 6.36661 2.14235 6.39679 1.90096 6.39679C1.71992 6.39679 1.56904 6.36661 1.41818 6.33644C1.75009 7.39251 2.71566 8.14685 3.89244 8.17703C2.98722 8.87101 1.87079 9.29345 0.633653 9.29345C0.422437 9.29345 0.21122 9.29345 0 9.26328C1.17678 10.0176 2.53461 10.44 4.04331 10.44C8.90132 10.44 11.5265 6.42696 11.5265 2.95701C11.5265 2.83632 11.5265 2.71562 11.5265 2.6251C12.0394 2.23285 12.492 1.75006 12.8239 1.23711V1.23711Z" fill="#C42B4B"/>
</svg>
